<?xml version="1.0" encoding="utf-8"?>
<!-- Generator: Adobe Illustrator 27.9.0, SVG Export Plug-In . SVG Version: 6.00 Build 0)  -->
<svg version="1.1" id="Layer_1" xmlns="http://www.w3.org/2000/svg" xmlns:xlink="http://www.w3.org/1999/xlink" x="0px" y="0px"
	 viewBox="0 0 406.8 122.8" style="enable-background:new 0 0 406.8 122.8;" xml:space="preserve">
<style type="text/css">
	.st0{fill:#FF8C00;}
	.st1{fill:#1594E0;}
	.st2{fill:#231F20;}
</style>
<path class="st0" d="M227.8,55.2c0,0-5.2-4.2-24.5,1.9c0,0-30.4,8.8-27.9,18.2c0,0,0,9.4,33.9,14.8c0,0,10.9,1.5,0,4.7
	c0,0-41.5,20-52.9,2.5H0v7.2h152.7c0,0,2.2,10.8,30.6,5.9c0,0,26.9-4.4,42.3-15.8c0,0,10.6-4.3-14.6-11.8c0,0-38.3-5.3-18.3-13.9
	c0,0,16.6-9.1,31.6-7.4C224.4,61.4,234.5,60.4,227.8,55.2L227.8,55.2z"/>
<path class="st0" d="M298.4,98.6c0,0,12.3-14.4,2.9-14.8c0,0-28.3-0.8-34.3,22.1c-0.6-2.6-0.9-5.2-0.9-7.9c0,0,0-11.1-9.1-12.2
	c0,0-4.2-2.2-16.1,10.2c0,0-8.4,10.1-3.1-4c0,0,13.1-40.5,29-55.4c0,0,5-2.7,0.7-6.4c0,0-3.3-5-7.5-0.7c0,0-18,24.6-30.1,61.2
	c0,0-6.3,28.3,8,18.4c0,0,18.2-20.2,19.3-11.2c0,0,0.3,13.8,10.2,24.1c0,0,4.6,2.8,9.5-1.9c0,0,3-2-2.2-3c0,0-3.2-1.1-5.7-5.5
	c2.7,0.3,7.5-0.8,16.3-7.2c0,0,4.5-5.1,3.6,0c0,0-0.6,9.5,9.4,9.3c0,0,4.4-0.2,0.1-5.6C298.6,107.8,295.3,104.2,298.4,98.6
	L298.4,98.6z M295.1,90.1c-2.3,3.8-19,13.6-19,13.6c-3.3,1.3-1.3-1.1-1.3-1.1c5-9.9,19.9-13.7,19.9-13.7
	C296.4,88.3,295.1,90.1,295.1,90.1z"/>
<path class="st0" d="M329.2,91.6c0,0-2.1-0.8-4.3,2.5l-12.1,16.4c0,0-11.3,7.2-9.4-11c0,0,1.9-13.5,7.6-9.6c0,0,1.8,0.8,0.6,8.2
	c0,0-1,5.8,1.1,1.3c0,0,12-22.6,18.4-13.8C331.1,85.5,334.5,90.6,329.2,91.6L329.2,91.6z M357.7,44.5c0,0,2.8-4.7,6.3,0
	c0,0,2.7,3.5-4.1,13.1c0,0-14.9,24.8-17.5,31.3c0,0-9.4,17.4,0,11.3c0,0,20.4-11.8,32.2-22.3c0,0,7.6-4.1,4.2,2.9
	c0,0-3.5,5.1-19.1,16.9c-2.3,1.2-3.4,3.9-2.6,6.4c0,0,1.2,4.9,12.2,0c0,0,11.9-7,8.9,0.3c0,0-7.8,12.5-22.9,9c0,0-5.3-1.8-5.3-6.6
	c0,0,0.2-3.2-3.4-0.6c0,0-16.1,12.1-16.7-2.6c0.9-9.4,4.4-18.3,10-25.9C339.7,77.7,356.4,49.8,357.7,44.5L357.7,44.5z"/>
<path class="st1" d="M143.1,56.1v6c0.2,0.1,0.3,0.1,0.5,0.2V56C143.4,56.1,143.3,56.1,143.1,56.1z M259.1,28.3
	c1.1-1.3,2.8-2.1,4.5-2.2c1.4,0,2.8,0.6,3.9,1.6c13.8-4.7,28.4-6.8,43-6.3c0,0-17.8,16.1-0.2,23c0,0,18.7,2.2,24.8,7.4
	c4.9,2,10.1,3.4,15.4,4c1.1-2.1,2.2-4.1,3.1-5.8c-3.1-1.2-6.5-1.8-9.8-2c-2.6-0.1-5.1-0.9-7.2-2.4c-7.1-3.9-14.9-6.1-23-6.5
	c0,0-8.5,0.6-2.6-8.7c0,0,4.4-6.5,10.8-9.1c0,0,3.7-2.4,1.5-4.4c0,0-0.6-3.5-18.4-1.7c0,0-33.3,0.8-51.6,12.4c0,0-2.9,2.9-10.7,2.8
	c0,0-20.6-0.6-33.4,6.3c0,0-2.8,3.2-5.9,3.3c-3.8,1.2-7.7,2-11.7,2.4c0,0-13,0.9-13.3,9.8c0,0-8.9-0.3-15.5,1.3V59
	c3.1-0.4,6.3-0.6,9.4-0.6c0,0,18.9,0.9,20.6-4.6c0,0,0.6-1.9-3.2-2.1c0,0-6.5-0.9,1.1-2.6c0,0,15.8-2.3,21.3-6.7c0,0,7.2-5.2,28-6.1
	c0,0,11.9,0.7,15.2-3.3c0.3-0.2,0.7-0.4,1-0.5c1.7-2.5,2.7-3.9,2.7-4C259,28.4,259,28.3,259.1,28.3L259.1,28.3z M403.4,0.5
	c0,0-2.4-2.6-8.7,4.3c-11.5,8.5-21.4,18.9-29.3,30.8c0,0-1.2,2.7-2.5,5.9c0.9,0.5,1.7,1.2,2.3,2.1c0.3,0.4,2.1,3.2-0.9,9.6
	c1.3-1.1,2.3-2.4,3-3.9c0,0,1.9-18.4,28.7-36.1c0,0-4.8,10.8-2.6,31.7c0,0,0.7,2.6-1.5,2.1c0,0-5.7-0.1-3.9,8.3c0,0,1.7,3,0.2,5.4
	c0,0-2.2,4.3,3.3,9.8c0,0,11.7,15.9,4.4,12.3c0,0-12.6-9.1-20.8-13c0,0-3.3-3.9-8.3,0c0,0-4.6,5.7,2.4,5.6c0,0,0.6-2.8,2.8-0.7
	c0,0,1.1,0.6,2.8,1.6c1-0.5,2.2-0.8,3.3-0.9c1-0.1,1.9,0.4,2.4,1.2c0.5,0.9,0.6,2,0.2,3c6,3.5,13.6,8.1,16.9,11c0,0,1.3,3.9,3.9,3.3
	c0,0,6.7,1.5,3.7-8.5c0,0-3.3-13.9-9.6-19.5c-1.1-1.1-1.5-2.8-0.9-4.3c1.9-1.6,2.2-4.4,0.7-6.3c0,0-2.6-2.8,0.4-3.5
	c0,0,4.8,0.9,4.1-9.3c0,0-2.7-22.8,6.1-36.3C406,6.1,408.9,3.1,403.4,0.5z"/>
<path class="st2" d="M392.5,100.9c2.3,0,4.2,1.8,4.2,4.1l0,0c0,2.3-1.8,4.1-4.1,4.1h-0.1c-2.3,0-4.1-1.8-4.1-4.1
	C388.4,102.7,390.2,100.9,392.5,100.9L392.5,100.9z M392.5,101.8c-1.8,0-3.3,1.5-3.2,3.4c0,1.8,1.5,3.3,3.4,3.2
	c1.7,0,3.1-1.4,3.1-3.1c0-0.1,0-0.1,0-0.2c0.1-1.8-1.3-3.2-3.1-3.3C392.6,101.8,392.5,101.8,392.5,101.8z M391.9,107.1H391V103
	c0.5-0.1,1.1-0.1,1.6-0.1c0.5-0.1,1,0,1.4,0.3c0.2,0.2,0.4,0.6,0.4,0.9c0,0.5-0.4,0.9-0.8,1c0.4,0.1,0.6,0.4,0.7,1
	c0,0.4,0.1,0.7,0.3,1h-1c-0.1-0.3-0.2-0.7-0.3-1c-0.1-0.4-0.4-0.7-0.8-0.6l0,0h-0.4v1.6L391.9,107.1z M391.9,104.8h0.4
	c0.5,0,0.9-0.2,0.9-0.6s-0.3-0.6-0.9-0.6c-0.2,0-0.4,0-0.5,0.1v1.1H391.9z M15.5,62.9l14.1,24.9l13.9-24.7v24.7h16V26.3H46.4
	L29.6,56.7L13.3,26.3H0v61.5h15.5V62.9z M83,78.7h19.8l3.7,9.1h16.6l-25-61.5H87.4L62.7,87.8H79L83,78.7z M92.6,53l5.5,13.8H87.4
	L92.6,53z M125.8,26.3h15.8v61.5h-15.8V26.3z M209.3,76.2h-17.9c3.8,1.8,10.9,3.6,17.9,4.7V76.2z M174.1,76.2h-12.8V26.3H145v61.5
	h47.3C177.8,83.5,174.7,78.4,174.1,76.2z"/>
</svg>
